<?xml version="1.0" standalone="no"?>
<!DOCTYPE svg PUBLIC "-//W3C//DTD SVG 20010904//EN"
 "http://www.w3.org/TR/2001/REC-SVG-20010904/DTD/svg10.dtd">
<svg version="1.0" xmlns="http://www.w3.org/2000/svg"
 width="900.000000pt" height="960.000000pt" viewBox="0 0 900.000000 960.000000"
 preserveAspectRatio="xMidYMid meet">
<metadata>
Created by potrace 1.16, written by Peter Selinger 2001-2019
</metadata>
<g transform="translate(0.000000,960.000000) scale(0.100000,-0.100000)"
fill="#000000" stroke="none">
<path d="M3392 9401 c-104 -213 -153 -286 -238 -356 -108 -88 -142 -98 -354
-106 -173 -7 -313 -28 -492 -74 -32 -8 -33 0 -18 90 4 28 7 51 6 52 -2 2 -27
-15 -57 -38 -153 -115 -233 -137 -290 -80 -32 33 -36 56 -15 106 18 42 48 62
139 89 48 15 73 28 75 39 4 21 -16 22 -128 2 -112 -20 -192 -47 -328 -111 -89
-42 -375 -199 -439 -242 -10 -6 -3 -59 32 -235 48 -247 70 -305 170 -458 47
-72 281 -317 292 -305 3 3 -16 38 -42 78 -60 94 -158 296 -180 373 -20 67 -46
227 -38 235 2 2 21 -4 41 -15 32 -18 38 -26 44 -68 8 -58 46 -139 87 -187 l30
-35 1 61 c0 69 9 124 19 124 4 0 29 -39 55 -87 47 -86 115 -187 122 -181 1 2
-2 37 -7 78 -8 66 -7 76 9 92 17 18 21 17 92 -7 95 -32 196 -50 395 -70 88 -9
171 -21 185 -28 14 -7 35 -32 48 -57 20 -38 22 -54 16 -105 -15 -138 -73 -305
-150 -434 -71 -119 -68 -116 -106 -100 -18 7 -57 33 -87 58 -51 41 -55 43 -68
26 -20 -28 -15 -103 11 -167 23 -56 23 -58 5 -58 -39 0 -117 50 -172 109 -31
34 -60 61 -65 61 -21 0 -202 -189 -244 -255 -76 -117 -149 -327 -213 -610 -12
-55 12 -13 60 105 64 160 118 258 249 455 62 94 122 185 133 204 l21 34 13
-73 c12 -69 12 -75 -9 -114 -27 -50 -28 -78 -4 -98 72 -63 222 -68 336 -11 84
42 133 80 258 199 172 164 206 185 333 199 87 10 120 27 144 74 45 87 19 166
-68 206 -23 10 -41 21 -41 25 0 10 64 30 97 30 41 0 62 -27 75 -99 6 -33 16
-61 21 -61 6 0 51 33 101 73 177 143 246 179 342 179 76 1 128 -23 160 -72 29
-44 40 -120 25 -176 -23 -86 -130 -212 -340 -397 -62 -56 -109 -103 -104 -104
6 -2 31 5 56 16 54 23 331 179 397 224 143 97 237 196 288 304 75 161 -6 372
-172 448 -110 50 -198 67 -452 85 -175 12 -237 21 -227 30 4 5 87 22 183 40
183 33 294 69 522 171 142 63 239 121 381 228 63 47 152 113 197 146 79 57
196 172 186 182 -3 3 -36 -1 -75 -8 -56 -9 -108 -10 -243 -1 -95 7 -251 15
-346 18 -152 6 -172 9 -167 23 28 90 85 342 83 365 -3 29 -6 26 -88 -68 -61
-70 -109 -115 -170 -156 -83 -56 -200 -125 -200 -118 0 1 7 39 15 83 8 44 14
117 15 162 0 88 -18 233 -29 233 -4 0 -49 -85 -99 -189z m-553 -683 l44 -13
-64 -42 c-112 -72 -129 -78 -201 -65 -123 22 -188 37 -188 43 0 7 143 75 187
90 36 11 166 4 222 -13z"/>
<path d="M4668 8946 c-21 -7 -63 -37 -94 -65 -87 -79 -169 -140 -283 -208
l-103 -63 48 -21 c81 -34 214 -77 304 -96 128 -27 387 -25 495 5 306 82 558
186 698 286 l48 34 -113 -5 c-132 -6 -204 3 -457 57 -178 39 -464 90 -492 90
-8 -1 -31 -7 -51 -14z"/>
<path d="M5565 8645 c-89 -49 -223 -100 -355 -135 l-44 -12 24 -19 c79 -60
269 -183 332 -212 132 -62 308 -93 473 -83 55 4 181 17 280 31 212 29 386 32
466 9 118 -34 403 -217 523 -337 l81 -79 -61 43 c-34 24 -120 88 -190 141 -74
56 -174 121 -233 150 l-103 53 -152 0 c-117 -1 -176 -6 -261 -24 -110 -22
-131 -30 -107 -38 38 -14 154 -113 278 -239 220 -222 263 -239 819 -314 83
-12 191 -31 240 -43 87 -21 92 -23 155 -87 66 -66 186 -218 178 -226 -3 -2
-42 31 -89 73 -105 95 -221 188 -262 210 -26 14 -68 18 -225 21 -106 2 -208 1
-227 -2 l-34 -7 34 -73 c32 -70 77 -206 69 -206 -2 0 -23 42 -47 93 -49 102
-76 136 -133 165 -53 27 -158 58 -224 67 l-55 7 56 -59 c31 -32 76 -83 100
-113 188 -232 257 -296 401 -375 75 -41 210 -89 278 -99 56 -9 47 -2 -80 64
-108 55 -164 93 -95 64 22 -9 76 -32 120 -50 44 -18 157 -52 250 -75 317 -76
402 -106 463 -158 36 -31 26 -33 -28 -6 -84 43 -221 84 -315 94 -140 16 -137
20 -97 -107 103 -327 126 -356 432 -542 156 -96 276 -175 285 -189 3 -6 -34 8
-82 31 -49 22 -109 48 -134 59 l-47 18 -6 -22 c-4 -12 -9 -78 -12 -147 -7
-152 14 -274 69 -394 43 -91 114 -170 287 -315 63 -53 147 -127 187 -164 70
-66 73 -71 90 -145 15 -63 18 -120 18 -307 0 -126 -4 -257 -9 -290 -8 -56 -9
-58 -17 -30 -15 52 -47 294 -64 480 -9 99 -22 193 -28 209 -13 36 -109 134
-191 196 -55 42 -59 43 -72 26 -23 -32 -54 -138 -65 -226 -11 -88 -7 -180 16
-360 8 -57 12 -106 10 -108 -6 -6 -34 95 -46 167 -17 94 -6 326 21 431 11 46
19 89 18 96 -2 6 -50 53 -107 104 l-104 93 6 -154 c7 -179 36 -336 97 -523 61
-186 191 -399 405 -669 l86 -107 -26 -143 c-44 -244 -48 -248 -56 -62 -11 239
-38 334 -120 416 l-41 41 -40 -38 c-22 -22 -74 -83 -114 -137 -41 -54 -74 -96
-74 -93 0 17 28 70 81 152 58 89 61 97 57 143 -4 39 -49 135 -85 180 -1 2 -14
-1 -26 -6 -30 -14 -68 -113 -98 -256 -17 -79 -22 -136 -22 -252 0 -155 11
-231 52 -345 l20 -55 1 100 1 100 34 -120 c18 -66 64 -205 100 -310 93 -262
91 -256 77 -313 -18 -70 -161 -352 -236 -467 -36 -55 -66 -97 -66 -94 0 3 32
75 71 159 127 276 162 419 141 571 -11 74 -59 200 -83 215 -13 8 -126 -93
-182 -164 -73 -91 -108 -145 -157 -238 -49 -92 -54 -99 -44 -59 15 61 65 169
108 233 46 69 139 172 190 211 l29 21 -43 140 c-24 77 -47 140 -52 140 -17 0
-146 -282 -191 -418 -62 -185 -81 -286 -73 -376 4 -39 34 -204 67 -367 32
-162 59 -306 59 -318 0 -27 -126 -197 -265 -359 -92 -107 -295 -306 -303 -297
-5 5 74 114 190 262 120 154 180 245 235 358 40 83 47 107 51 175 5 82 -24
320 -39 320 -32 0 -338 -294 -394 -378 -30 -45 -38 -53 -28 -24 27 72 142 212
258 312 l92 80 7 136 c4 75 4 139 1 143 -11 10 -157 -149 -212 -229 -91 -136
-160 -294 -207 -475 -35 -132 -34 -151 4 -92 16 26 31 47 33 47 2 0 -6 -44
-20 -97 -22 -95 -48 -263 -76 -503 -8 -63 -22 -132 -31 -152 -20 -42 -124
-133 -281 -247 -110 -80 -275 -185 -281 -178 -2 2 80 86 182 188 102 101 228
231 280 289 117 130 132 169 136 362 4 150 19 143 -143 62 -255 -127 -338
-193 -399 -317 -32 -66 -45 -113 -118 -447 l-47 -215 -200 -100 c-172 -86
-325 -152 -325 -141 0 2 86 61 192 132 214 142 263 187 308 277 29 60 100 311
90 321 -4 4 -128 -20 -260 -50 -58 -13 2 18 96 49 l99 34 43 86 c45 93 62 147
44 147 -24 0 -127 -52 -210 -106 -226 -147 -366 -268 -466 -401 -91 -121 -147
-236 -205 -419 -39 -122 -58 -167 -79 -186 -43 -40 -278 -109 -482 -142 -168
-26 -180 -28 -180 -23 0 11 167 69 308 108 236 65 318 112 367 213 23 47 60
205 50 214 -12 12 -176 22 -270 16 -200 -12 -327 -60 -500 -192 -66 -50 -124
-108 -215 -216 -69 -81 -138 -157 -154 -169 -27 -19 -43 -21 -220 -21 -189 -1
-493 20 -501 34 -13 21 100 33 380 39 192 4 307 11 320 18 56 32 253 283 239
305 -11 17 -144 75 -202 87 -76 16 -146 14 -248 -8 -177 -38 -250 -77 -510
-272 l-187 -140 -51 6 c-84 12 -264 53 -371 86 -154 47 -250 82 -236 87 16 5
241 -23 422 -54 176 -29 242 -30 290 -6 55 28 185 129 273 212 l80 77 -100 56
c-167 93 -191 101 -329 102 -137 0 -182 -10 -363 -80 -78 -31 -150 -68 -217
-113 -165 -110 -186 -122 -232 -122 -54 0 -121 25 -318 120 -163 79 -240 129
-200 129 33 1 142 -27 272 -70 161 -52 250 -65 325 -50 33 7 142 54 260 113
112 55 204 101 205 102 1 1 0 11 -3 22 -3 12 -40 39 -97 70 -194 108 -310 136
-443 109 -89 -18 -264 -75 -491 -159 -84 -31 -167 -56 -186 -56 -41 0 -159 72
-342 210 -148 111 -364 302 -348 307 17 6 167 -35 264 -71 109 -41 144 -62
295 -173 128 -94 202 -133 271 -141 45 -5 140 21 293 79 l79 30 -24 64 c-29
79 -81 161 -142 226 -54 58 -45 65 17 12 52 -45 113 -136 135 -204 15 -45 19
-49 48 -49 33 0 151 16 201 26 l28 6 -48 50 c-119 121 -300 231 -424 258 -30
6 -89 10 -130 8 -73 -3 -74 -3 -45 -17 29 -14 28 -15 -65 -28 -138 -19 -563
-28 -685 -14 -158 17 -168 22 -277 133 -85 86 -258 300 -258 319 0 13 124 -21
185 -50 44 -21 99 -66 208 -169 169 -162 211 -187 337 -204 83 -11 371 -1 385
14 8 8 -88 199 -135 268 -78 115 -189 188 -321 210 -35 6 -215 13 -401 17
l-336 6 -74 106 c-135 193 -291 471 -274 488 11 11 135 -123 237 -257 119
-155 207 -243 279 -278 51 -25 65 -27 213 -30 l158 -4 -25 39 c-14 21 -51 94
-81 163 -139 309 -209 364 -600 464 -116 30 -222 60 -238 67 -39 18 -58 54
-117 224 -29 83 -77 211 -107 285 -82 203 -76 183 -50 165 60 -39 123 -157
182 -335 67 -207 111 -266 243 -328 66 -31 278 -89 289 -78 10 10 -17 260 -36
328 -22 83 -54 136 -128 217 -75 84 -165 142 -388 250 -197 96 -207 104 -243
201 -27 74 -68 265 -81 375 -17 148 -26 419 -13 412 25 -16 72 -157 82 -248
34 -296 73 -441 161 -590 53 -88 77 -109 194 -167 150 -74 142 -74 151 -5 10
82 11 415 1 493 -11 84 -2 74 18 -19 10 -51 15 -131 15 -268 0 -240 -6 -226
139 -337 12 -9 13 11 7 139 -12 239 -45 394 -111 525 -34 66 -76 112 -153 167
-43 31 -393 346 -445 401 -24 25 -30 44 -39 108 -20 157 5 417 60 634 l27 105
3 -65 c2 -36 -5 -135 -14 -220 -10 -85 -17 -211 -17 -280 0 -190 33 -291 122
-380 46 -46 158 -127 164 -119 2 2 11 31 21 64 22 72 101 234 133 273 23 27
23 26 -3 -43 -62 -164 -84 -232 -84 -260 0 -36 46 -119 87 -158 l30 -28 43
208 c50 236 59 346 37 443 -17 72 -46 144 -71 175 -15 19 -16 17 -10 -25 l6
-45 -54 90 c-30 50 -95 151 -145 225 -49 74 -104 160 -120 190 -30 53 -31 58
-22 123 14 109 54 245 125 425 78 197 176 395 182 369 5 -24 -23 -202 -49
-305 -11 -45 -49 -162 -84 -261 -79 -221 -101 -321 -85 -382 16 -60 63 -130
122 -184 l50 -45 50 72 c186 269 224 368 215 548 -6 111 -11 129 -112 419 -62
174 -68 237 -30 311 31 62 212 340 221 340 10 0 -6 -129 -26 -217 -22 -92 -59
-172 -125 -269 -25 -36 -45 -72 -45 -80 0 -26 40 -135 77 -208 l36 -71 44 50
c108 121 185 215 233 285 29 41 49 64 45 50 -13 -46 -85 -158 -170 -266 -47
-60 -88 -119 -92 -132 -3 -13 -3 -56 -1 -96 4 -67 3 -73 -14 -68 -16 4 -18 -3
-18 -84 0 -157 -38 -264 -166 -469 -51 -83 -55 -94 -51 -138 4 -50 51 -129 78
-135 14 -2 70 127 129 303 41 120 47 149 65 311 14 130 18 145 60 229 24 50
68 131 96 180 28 50 68 126 87 170 33 75 35 86 34 180 -1 141 -31 280 -85 395
-49 105 -82 202 -92 268 l-7 44 -63 -111 c-35 -61 -114 -174 -177 -253 -63
-79 -128 -163 -144 -188 -26 -38 -196 -362 -321 -610 -40 -80 -58 -185 -49
-292 4 -43 5 -78 2 -78 -2 0 -34 41 -71 90 -37 50 -69 89 -71 87 -2 -2 1 -30
6 -63 27 -166 6 -304 -79 -524 -62 -159 -75 -217 -69 -321 4 -69 10 -95 37
-148 18 -34 30 -65 27 -68 -3 -3 -37 13 -75 35 -39 23 -71 40 -71 38 0 -2 22
-45 49 -97 73 -139 79 -178 57 -412 -26 -270 -16 -317 100 -499 25 -38 43 -72
41 -74 -3 -3 -29 4 -58 16 -30 11 -57 20 -61 20 -4 0 17 -36 47 -81 31 -46 72
-127 95 -187 70 -182 85 -215 194 -407 58 -103 106 -189 106 -191 0 -2 -7 -4
-15 -4 -22 0 -20 -4 32 -68 57 -70 111 -184 153 -322 91 -307 146 -399 286
-482 43 -25 91 -59 105 -75 38 -41 101 -153 154 -273 26 -58 56 -120 67 -139
28 -45 114 -99 244 -152 121 -49 153 -77 257 -213 33 -45 89 -109 123 -142 68
-68 101 -83 243 -110 47 -8 102 -24 122 -35 21 -10 91 -73 156 -140 65 -66
137 -134 160 -150 47 -32 87 -37 269 -30 87 3 94 2 160 -31 38 -20 122 -67
187 -106 175 -106 207 -116 344 -108 97 6 112 5 107 -8 -5 -13 0 -13 42 0 104
31 166 19 384 -79 79 -35 154 -50 214 -44 28 3 109 24 181 46 71 23 133 41
138 41 5 0 -7 -23 -27 -50 -20 -28 -36 -52 -36 -54 0 -3 43 15 95 39 149 69
170 73 449 78 l249 4 179 92 c99 51 182 90 185 87 2 -2 0 -20 -5 -40 -6 -20
-8 -36 -6 -36 3 0 40 24 82 53 89 61 106 66 349 107 96 17 196 39 222 50 32
15 84 60 176 154 148 151 156 155 372 206 205 49 214 56 353 265 103 155 154
200 308 276 237 116 255 134 342 347 58 140 118 265 157 324 14 21 79 81 145
134 174 140 182 154 246 476 20 103 39 188 42 188 3 0 18 -21 35 -48 l29 -47
8 110 c15 232 35 302 135 460 53 85 105 182 122 228 10 27 2 89 -25 187 l-7
25 27 -24 c14 -14 26 -22 26 -19 0 4 -12 50 -26 105 -38 143 -33 194 40 352
76 163 79 190 33 351 -51 178 -69 250 -65 262 2 6 21 -4 41 -22 21 -18 39 -31
41 -29 3 2 -22 60 -53 129 -97 210 -96 205 -93 440 1 125 -2 224 -9 253 -8 32
-32 76 -71 129 -33 44 -58 82 -55 84 2 2 23 -3 47 -11 73 -26 75 -17 7 49 -75
73 -84 95 -118 285 -39 219 -39 217 -201 374 l-143 138 50 -4 50 -5 -50 41
c-139 113 -206 211 -260 377 -50 152 -65 173 -213 272 -161 108 -332 275 -430
419 -135 200 -158 218 -377 304 -141 55 -475 227 -630 325 -151 95 -177 107
-316 155 -170 59 -271 83 -373 90 l-81 5 -100 -55z"/>
<path d="M4144 8573 c-10 -8 -68 -44 -128 -80 -84 -51 -105 -68 -93 -75 31
-17 242 -67 332 -79 153 -20 415 1 592 47 85 22 238 82 230 90 -2 2 -48 -3
-103 -11 -255 -38 -532 -3 -750 95 -54 24 -63 26 -80 13z"/>
<path d="M5060 8429 c-36 -16 -95 -39 -133 -51 -37 -12 -66 -27 -64 -32 5 -16
197 -100 307 -135 202 -65 359 -91 547 -91 106 0 251 14 283 27 8 3 -45 12
-119 19 -74 7 -171 20 -215 29 -145 30 -310 108 -452 216 -36 27 -70 49 -77
48 -7 -1 -41 -14 -77 -30z"/>
<path d="M3825 8379 c-48 -11 -178 -60 -173 -65 2 -2 58 -17 123 -34 97 -26
131 -30 180 -25 72 7 244 34 265 41 19 7 -320 97 -348 93 -4 -1 -25 -5 -47
-10z"/>
<path d="M4643 8286 c-35 -7 -65 -15 -68 -18 -8 -8 134 -44 220 -57 111 -16
302 -25 290 -13 -5 5 -57 29 -115 52 -120 48 -218 59 -327 36z"/>
<path d="M4033 8128 c96 -110 107 -132 107 -207 0 -36 -7 -91 -15 -121 -21
-80 -87 -205 -151 -283 -30 -38 -54 -70 -52 -72 2 -2 37 11 79 29 209 91 431
257 632 474 32 34 61 62 64 62 3 0 4 -35 1 -77 -6 -93 -21 -127 -96 -205 -71
-75 -130 -112 -233 -147 -133 -44 -213 -91 -157 -91 51 0 293 40 390 65 176
45 383 156 469 253 49 56 89 135 89 178 0 44 -32 80 -102 115 -101 51 -196 71
-344 73 l-130 1 -61 -37 c-34 -21 -67 -38 -75 -38 -7 0 -72 20 -143 45 -120
41 -138 45 -228 45 l-99 0 55 -62z"/>
<path d="M2070 8145 c-16 -19 -16 -19 43 -44 l48 -21 -30 -43 c-42 -61 -134
-162 -286 -312 -139 -138 -172 -187 -199 -290 -19 -77 -30 -223 -19 -253 8
-21 17 -13 122 107 184 213 396 406 651 596 125 93 167 130 186 168 15 27 14
28 -21 43 -55 23 -167 42 -308 54 -165 13 -172 13 -187 -5z"/>
<path d="M5167 8079 c55 -59 83 -109 83 -149 0 -133 -117 -257 -348 -370 -62
-30 -112 -57 -112 -61 0 -30 400 -45 563 -21 132 20 229 86 296 203 38 66 39
100 5 167 -57 114 -214 211 -394 242 -36 6 -78 13 -95 16 l-30 6 32 -33z"/>
<path d="M6002 8098 l-63 -10 153 -106 c293 -204 431 -280 588 -325 84 -24
180 -42 180 -34 0 2 -57 33 -127 67 l-128 63 -150 151 c-173 175 -210 198
-320 202 -38 1 -98 -2 -133 -8z"/>
<path d="M5690 8020 c73 -64 151 -98 360 -154 l125 -34 -40 35 c-22 19 -87 67
-145 106 l-105 72 -115 3 -115 3 35 -31z"/>
<path d="M2464 7902 c-65 -49 -139 -105 -164 -126 -62 -52 -238 -225 -262
-258 l-19 -28 38 -41 39 -41 29 38 c54 73 210 226 310 307 55 44 108 94 117
112 17 31 40 116 34 122 -2 2 -56 -37 -122 -85z"/>
<path d="M5704 7895 c63 -74 74 -111 56 -185 -25 -105 -95 -165 -280 -239 -58
-24 -109 -46 -113 -50 -4 -5 29 -16 75 -27 113 -26 363 -26 458 -1 108 29 170
93 178 180 9 117 -88 225 -293 326 -68 34 -126 61 -130 61 -3 0 19 -29 49 -65z"/>
<path d="M3499 7876 c-36 -13 -113 -65 -106 -73 2 -2 34 8 71 22 90 34 158 34
184 0 28 -35 36 -92 21 -149 -16 -64 -77 -129 -271 -287 -155 -127 -231 -207
-269 -280 -26 -51 -49 -144 -49 -194 0 -39 1 -39 53 59 63 119 118 182 323
362 254 223 311 312 272 425 -18 54 -48 90 -92 110 -48 22 -87 23 -137 5z"/>
<path d="M3493 7790 c-18 -11 -35 -31 -39 -44 -7 -28 32 -156 47 -156 22 0
101 45 119 68 35 44 19 112 -31 138 -37 19 -58 18 -96 -6z"/>
<path d="M3336 7679 c-37 -56 -42 -96 -17 -137 41 -64 109 -67 177 -8 l39 33
-45 8 c-25 4 -53 12 -63 17 -22 11 -47 67 -47 103 0 36 -13 31 -44 -16z"/>
<path d="M6176 7633 c30 -47 54 -92 54 -99 0 -14 -80 -116 -115 -147 -35 -32
-118 -66 -176 -73 -38 -4 -100 1 -195 16 -176 28 -259 25 -335 -13 -49 -24
-60 -34 -78 -77 -11 -27 -21 -51 -21 -54 0 -3 24 10 54 29 30 19 77 44 104 54
55 22 186 51 228 51 l27 0 -22 -24 -22 -23 150 -67 c175 -77 302 -116 375
-116 113 1 242 45 267 93 53 97 6 247 -113 365 -58 57 -211 172 -229 172 -4 0
17 -39 47 -87z"/>
<path d="M4890 7629 c-111 -56 -177 -77 -361 -113 -181 -37 -246 -63 -304
-123 -31 -32 -85 -119 -85 -138 0 -2 21 11 47 31 72 55 128 80 340 149 108 36
226 81 262 101 66 36 191 121 191 130 0 7 -13 2 -90 -37z"/>
<path d="M6565 7569 c71 -124 221 -270 363 -353 18 -11 -29 80 -89 174 -40 63
-58 81 -111 112 -115 66 -177 91 -163 67z"/>
<path d="M1577 7510 c-154 -99 -286 -216 -334 -298 -45 -75 -32 -184 38 -324
29 -57 84 -128 99 -128 16 0 133 165 164 230 29 62 31 72 36 235 l5 170 40 83
c23 45 38 82 35 82 -3 0 -40 -23 -83 -50z"/>
<path d="M6531 7483 c2 -4 24 -48 48 -97 38 -77 45 -101 49 -165 3 -67 1 -80
-20 -110 -46 -67 -67 -76 -196 -79 -64 -2 -150 1 -189 6 -40 4 -73 6 -73 4 0
-16 176 -131 254 -168 86 -39 220 -68 288 -62 92 9 168 101 168 203 -1 99 -88
254 -215 381 -64 64 -123 110 -114 87z"/>
<path d="M2831 7440 c-59 -20 -63 -23 -220 -181 -112 -112 -120 -118 -245
-179 -71 -35 -125 -65 -118 -68 6 -2 51 4 99 13 110 20 191 63 350 183 114 86
211 148 217 141 2 -2 11 -26 21 -54 10 -27 21 -54 25 -58 7 -8 40 127 40 162
0 18 -24 32 -86 50 -23 6 -46 4 -83 -9z"/>
<path d="M4978 7425 c-26 -7 -67 -24 -90 -39 -54 -32 -131 -101 -103 -91 11 3
45 15 75 25 30 10 138 37 240 60 102 23 192 46 200 51 25 14 -269 9 -322 -6z"/>
<path d="M3708 7346 c-290 -164 -327 -194 -373 -301 -18 -43 -57 -207 -50
-213 2 -2 19 27 39 65 48 96 69 118 225 240 75 58 164 130 198 160 61 53 132
134 116 132 -4 0 -74 -38 -155 -83z"/>
<path d="M6933 7087 c25 -68 38 -150 35 -203 -5 -76 -35 -121 -105 -155 -45
-22 -60 -24 -215 -24 -191 0 -190 2 -70 -78 260 -174 505 -211 574 -86 17 29
19 49 15 134 -3 90 -7 107 -39 170 -20 39 -56 97 -81 130 -52 69 -123 139
-114 112z"/>
<path d="M1584 7013 c-15 -27 -65 -108 -112 -182 -48 -76 -93 -159 -103 -193
-19 -61 -25 -153 -11 -162 12 -7 81 93 130 187 54 104 149 397 128 397 -2 0
-16 -21 -32 -47z"/>
<path d="M7150 6986 c0 -15 73 -172 87 -189 23 -25 253 -200 258 -195 7 7
-124 260 -141 273 -22 16 -193 115 -200 115 -2 0 -4 -2 -4 -4z"/>
<path d="M7390 6914 c0 -16 159 -240 233 -329 139 -166 263 -277 359 -324 46
-22 94 -43 108 -46 22 -6 23 -5 10 8 -8 8 -48 42 -88 75 -129 107 -177 180
-248 377 -20 55 -45 112 -55 126 -30 42 -100 70 -291 113 -16 4 -28 4 -28 0z"/>
<path d="M7231 6670 c36 -186 19 -254 -74 -299 -73 -35 -177 -22 -346 43 -52
20 -95 35 -97 33 -7 -6 189 -173 263 -224 87 -60 191 -106 280 -123 59 -12 65
-11 110 11 33 17 53 36 66 62 18 35 19 46 9 118 -22 155 -95 322 -187 426
l-43 48 19 -95z"/>
<path d="M7495 6293 c3 -10 9 -70 12 -133 5 -110 4 -117 -19 -150 -65 -95
-201 -95 -417 2 -35 16 -66 26 -69 23 -3 -2 15 -30 39 -62 99 -133 216 -235
330 -288 120 -55 246 -18 281 84 21 62 14 195 -15 286 -26 80 -122 255 -140
255 -5 0 -6 -8 -2 -17z"/>
<path d="M1644 6247 c-22 -29 -54 -74 -71 -102 -17 -27 -72 -117 -123 -199
-50 -81 -116 -198 -146 -258 -55 -113 -137 -348 -132 -377 2 -9 46 52 102 139
109 172 104 165 110 159 2 -2 14 -73 27 -157 15 -104 27 -156 36 -159 8 -3 16
-4 18 -2 2 3 9 60 15 128 17 199 107 588 183 790 19 50 31 91 28 91 -3 -1 -24
-24 -47 -53z"/>
<path d="M7687 6183 c3 -60 11 -120 19 -134 7 -14 42 -61 79 -105 54 -65 137
-183 191 -271 10 -16 -85 413 -99 451 -6 16 -175 166 -187 166 -4 0 -5 -48 -3
-107z"/>
<path d="M7910 6207 c0 -34 46 -198 73 -258 61 -139 217 -402 296 -499 30 -37
26 -15 -19 96 -64 157 -73 199 -79 403 l-6 184 -110 42 c-152 57 -155 58 -155
32z"/>
<path d="M1375 6022 c-175 -237 -301 -501 -430 -905 l-58 -179 17 -61 c10 -34
28 -86 40 -116 l23 -54 16 24 c51 77 68 141 73 261 2 66 13 165 24 221 35 173
125 424 218 606 92 182 114 231 104 231 -4 0 -16 -13 -27 -28z"/>
<path d="M7711 5808 c-1 -171 -23 -221 -115 -264 -89 -41 -178 -25 -293 54
-34 23 -64 42 -67 42 -3 0 6 -26 20 -57 39 -88 129 -217 187 -268 67 -59 159
-105 209 -105 54 0 113 33 145 82 27 41 28 45 27 182 -1 160 -20 251 -78 371
l-34 70 -1 -107z"/>
<path d="M1583 5755 c-32 -103 -43 -158 -54 -275 -9 -107 -3 -270 12 -270 15
0 100 117 133 185 29 59 87 226 110 315 4 14 -17 -20 -46 -75 -60 -112 -107
-185 -119 -185 -5 0 -10 84 -11 188 l-3 187 -22 -70z"/>
<path d="M8029 5468 c-3 -210 -3 -210 73 -386 39 -89 75 -165 80 -168 6 -4 7
24 4 72 -3 44 -8 128 -12 189 -3 68 -12 127 -24 157 -17 46 -108 208 -116 208
-2 0 -4 -33 -5 -72z"/>
<path d="M1346 5508 c-35 -53 -109 -224 -145 -335 -40 -120 -72 -265 -91 -406
-11 -84 -12 -457 -2 -495 13 -44 27 -27 35 43 12 111 35 246 50 295 l13 45 29
-45 c16 -25 53 -90 83 -145 41 -76 52 -92 48 -65 -12 74 -17 686 -8 900 5 124
8 227 7 228 -2 2 -10 -7 -19 -20z"/>
<path d="M7930 5460 c-10 -103 -33 -230 -48 -263 -29 -65 -78 -115 -125 -128
-81 -21 -160 8 -285 106 -40 31 -76 54 -79 51 -11 -11 27 -126 68 -209 53
-106 128 -207 180 -242 58 -41 140 -46 189 -13 47 32 95 106 121 186 30 96 37
278 14 397 -13 73 -33 136 -35 115z"/>
<path d="M1460 5067 c0 -17 65 -315 87 -402 23 -90 29 -103 31 -75 4 39 -16
372 -25 407 -5 23 -93 89 -93 70z"/>
<path d="M1400 4984 c0 -84 20 -311 40 -454 23 -154 69 -388 81 -410 5 -9 9
41 11 120 4 234 -1 296 -38 450 -20 80 -45 183 -56 230 -26 111 -37 129 -38
64z"/>
<path d="M8029 4895 c-4 -5 -17 -41 -29 -80 -58 -180 -107 -229 -225 -229
-111 0 -166 41 -288 215 l-39 54 7 -57 c15 -132 89 -352 143 -421 31 -41 92
-83 132 -92 53 -12 109 13 169 73 95 97 134 192 145 358 6 87 -3 199 -15 179z"/>
<path d="M8157 4608 c-38 -104 -49 -166 -42 -223 7 -54 33 -198 42 -229 7 -25
103 258 103 306 0 20 -13 76 -30 125 -16 48 -30 89 -30 90 0 2 -4 3 -9 3 -4 0
-20 -33 -34 -72z"/>
<path d="M1206 4473 c-3 -3 -6 -109 -6 -234 0 -299 20 -454 82 -649 25 -79
100 -236 128 -270 l22 -25 -6 55 c-15 148 -19 307 -7 314 27 17 139 -85 245
-222 27 -34 51 -60 54 -57 10 9 -42 133 -132 315 -50 102 -113 235 -141 295
-92 204 -232 485 -239 478z"/>
<path d="M7477 4355 c-33 -237 32 -461 146 -504 44 -17 128 -13 158 7 102 67
191 264 204 452 l6 75 -49 -101 c-78 -161 -158 -223 -252 -195 -46 14 -100 57
-129 105 -11 18 -33 72 -49 121 l-29 88 -6 -48z"/>
<path d="M961 4248 c-11 -40 -21 -80 -21 -88 -1 -8 25 -81 57 -163 50 -125 61
-147 78 -145 24 3 33 53 34 186 1 66 -3 92 -20 125 -35 69 -90 157 -98 157 -5
0 -18 -33 -30 -72z"/>
<path d="M7432 3920 c-48 -122 -62 -354 -26 -426 25 -47 104 -104 146 -104 51
0 147 59 195 120 66 84 163 284 163 336 0 8 -26 -15 -57 -52 -102 -120 -186
-152 -274 -102 -60 33 -85 80 -134 243 -1 6 -7 -1 -13 -15z"/>
<path d="M8044 3817 c-33 -35 -67 -79 -76 -98 -16 -34 -83 -357 -76 -365 3 -2
31 38 64 89 32 50 87 127 121 169 l63 78 -12 82 c-6 46 -14 89 -18 96 -4 9
-25 -6 -66 -51z"/>
<path d="M7277 3443 c-48 -138 -67 -229 -67 -323 0 -74 22 -186 40 -204 14
-14 109 30 181 84 36 27 93 83 126 125 61 77 153 231 153 256 0 7 -28 -14 -62
-47 -79 -77 -105 -94 -142 -94 -39 0 -131 56 -146 89 -7 14 -17 70 -23 124 -6
53 -14 97 -17 97 -3 0 -23 -48 -43 -107z"/>
<path d="M1510 3447 c0 -42 30 -186 57 -271 29 -96 124 -294 183 -386 52 -80
163 -231 167 -227 1 2 -4 37 -11 78 -8 41 -16 103 -18 139 -4 80 -8 79 150 5
61 -30 112 -52 112 -49 0 23 -187 289 -283 402 -79 93 -242 250 -311 300 l-46
33 0 -24z"/>
<path d="M953 3345 c119 -147 124 -159 182 -428 19 -90 44 -125 111 -156 53
-25 134 -43 134 -29 0 23 -77 205 -133 312 -79 151 -171 253 -312 342 -26 17
-24 12 18 -41z"/>
<path d="M1224 3325 c3 -27 13 -86 23 -129 l17 -79 114 -114 c64 -62 117 -111
120 -109 2 3 -4 58 -13 123 -14 103 -20 121 -43 144 -15 14 -71 68 -126 120
l-99 94 7 -50z"/>
<path d="M7738 3137 c-110 -101 -115 -111 -167 -297 -27 -93 -44 -170 -40
-170 5 0 9 4 9 9 0 5 59 59 130 120 l130 112 0 139 c0 77 -1 140 -2 140 -2 -1
-28 -24 -60 -53z"/>
<path d="M7061 3061 c-54 -84 -135 -244 -156 -309 -12 -37 -16 -75 -13 -124 3
-62 7 -73 31 -94 57 -49 147 -22 277 83 68 55 270 263 256 263 -4 0 -38 -16
-76 -35 -124 -62 -195 -64 -251 -4 -35 38 -44 94 -31 196 6 43 9 79 7 81 -2 3
-22 -23 -44 -57z"/>
<path d="M1210 2723 c0 -4 29 -30 64 -56 113 -85 141 -121 228 -291 98 -191
144 -246 204 -245 21 0 56 6 78 12 l39 12 -45 50 c-24 28 -85 102 -135 165
-138 174 -202 231 -375 329 -32 18 -58 29 -58 24z"/>
<path d="M6743 2652 c-161 -182 -243 -335 -243 -453 l0 -36 69 -7 c56 -6 80
-3 132 15 172 57 359 173 453 281 25 29 44 54 42 56 -2 2 -33 -15 -70 -37 -91
-56 -131 -71 -188 -71 -60 0 -103 21 -128 63 -24 39 -25 91 -5 188 9 40 14 74
11 76 -2 2 -35 -31 -73 -75z"/>
<path d="M1986 2692 c-16 -26 48 -209 106 -305 75 -123 328 -406 328 -366 0 8
-4 19 -9 24 -5 6 -19 35 -31 65 -18 46 -21 66 -15 128 l7 72 31 0 c18 0 74 -7
126 -15 52 -9 96 -13 99 -10 8 8 -128 155 -204 218 -89 76 -182 130 -275 160
-86 28 -156 41 -163 29z"/>
<path d="M1665 2560 c41 -152 39 -149 177 -240 68 -45 131 -89 141 -98 9 -8
17 -13 17 -10 0 13 -93 256 -105 274 -11 18 -234 164 -249 164 -3 0 6 -40 19
-90z"/>
<path d="M7246 2404 c-107 -68 -147 -103 -168 -151 -42 -94 -86 -224 -75 -220
7 3 64 36 127 75 l115 69 42 124 c43 130 48 150 36 148 -5 0 -39 -21 -77 -45z"/>
<path d="M6359 2320 c-188 -173 -273 -331 -261 -484 l3 -39 74 7 c188 17 377
107 536 253 33 32 57 59 51 61 -5 1 -45 -6 -88 -17 -101 -25 -176 -35 -209
-27 -35 9 -65 61 -65 113 0 23 12 79 26 123 14 45 24 83 22 85 -2 2 -42 -32
-89 -75z"/>
<path d="M7379 2215 c-60 -43 -352 -340 -423 -429 -31 -39 -72 -101 -92 -140
l-37 -70 84 86 c66 67 106 97 189 143 174 97 229 140 255 200 30 67 78 221 74
234 -2 5 -25 -5 -50 -24z"/>
<path d="M2513 2195 c-48 -21 -66 -55 -54 -102 39 -146 257 -336 571 -498 38
-20 37 -18 -41 85 -62 82 -99 145 -99 171 0 21 53 67 87 75 24 6 131 0 218
-12 l40 -6 -64 50 c-119 93 -310 187 -476 233 -81 22 -137 24 -182 4z"/>
<path d="M1896 2082 c5 -5 48 -34 96 -66 104 -68 139 -107 219 -244 52 -89 67
-107 103 -123 43 -19 85 -23 150 -11 l39 7 -60 75 c-110 138 -230 238 -368
308 -79 39 -208 78 -179 54z"/>
<path d="M2185 2063 c87 -134 159 -201 263 -242 134 -52 131 -53 72 36 -71
105 -86 120 -152 154 -51 26 -183 79 -195 79 -3 0 3 -12 12 -27z"/>
<path d="M5910 2034 c-201 -107 -371 -251 -385 -327 -22 -118 60 -187 222
-187 92 0 204 23 305 61 78 30 208 109 241 146 17 20 16 20 -160 26 -98 4
-191 10 -206 13 -25 6 -27 10 -22 38 13 65 37 125 80 201 25 43 45 80 45 82 0
9 -23 -2 -120 -53z"/>
<path d="M6730 1869 c-25 -9 -85 -25 -135 -34 -49 -9 -99 -18 -110 -20 -12 -3
-32 -27 -50 -61 -16 -32 -57 -97 -92 -146 -34 -48 -58 -88 -52 -88 25 0 257
64 276 76 13 8 50 56 84 107 34 50 77 111 97 135 19 24 33 44 31 46 -2 1 -24
-5 -49 -15z"/>
<path d="M3065 1828 c-108 -62 -9 -187 265 -335 101 -54 288 -136 360 -158 16
-5 -13 29 -88 101 -119 116 -122 122 -106 201 l6 30 131 23 c73 12 136 25 141
28 25 15 -168 85 -293 107 -102 18 -386 20 -416 3z"/>
<path d="M5380 1794 c-178 -51 -341 -158 -391 -255 -23 -47 -25 -107 -3 -138
30 -42 71 -51 236 -52 168 0 223 8 423 67 66 19 128 38 138 41 10 2 17 7 14 9
-2 2 -70 13 -150 24 -211 30 -277 54 -277 102 0 27 31 84 89 161 59 79 57 81
-79 41z"/>
<path d="M4895 1654 c-188 -33 -373 -104 -504 -193 -63 -43 -84 -79 -64 -110
20 -31 137 -80 233 -98 171 -31 619 -20 689 17 7 4 -55 23 -145 45 -174 41
-314 90 -314 109 0 7 13 33 29 58 30 46 56 68 176 144 l70 43 -45 0 c-25 -1
-81 -7 -125 -15z"/>
<path d="M3908 1650 c-102 -18 -264 -80 -282 -109 -11 -17 6 -40 67 -91 101
-82 242 -148 398 -184 63 -14 273 -46 307 -46 9 0 -21 22 -67 48 -80 46 -201
144 -201 162 0 18 61 79 103 103 23 13 74 34 112 47 39 12 74 26 78 30 5 4
-52 17 -126 29 -137 21 -298 26 -389 11z"/>
<path d="M2810 1589 c0 -15 146 -133 193 -157 43 -21 147 -45 147 -34 0 11
-112 141 -128 147 -63 26 -212 57 -212 44z"/>
<path d="M5993 1465 l-103 -12 -58 -54 c-32 -30 -97 -83 -144 -119 l-87 -65
70 -3 c38 -2 115 1 170 6 116 11 111 8 250 170 l80 92 -38 -1 c-21 -1 -84 -7
-140 -14z"/>
<path d="M3420 1309 c87 -59 198 -107 264 -114 36 -4 71 -3 81 2 14 8 10 16
-32 50 -26 22 -58 45 -69 51 -26 14 -194 42 -249 42 l-40 0 45 -31z"/>
<path d="M3065 1229 c-103 -15 -106 -14 100 -39 80 -9 106 -19 239 -82 161
-78 209 -89 331 -73 45 5 55 10 55 26 0 20 -31 36 -196 104 -173 70 -344 91
-529 64z"/>
<path d="M5080 1167 c-41 -19 -102 -46 -134 -61 -32 -15 -55 -31 -50 -35 13
-11 151 -59 206 -71 l47 -10 165 97 c91 54 164 98 163 99 -1 1 -74 4 -162 8
l-160 6 -75 -33z"/>
<path d="M4260 1161 c-36 -10 -71 -20 -79 -22 -17 -6 109 -101 170 -128 38
-17 54 -19 115 -11 99 13 196 29 201 33 6 6 -15 21 -122 83 -87 50 -108 58
-160 60 -35 2 -87 -4 -125 -15z"/>
<path d="M5880 1144 c-278 -61 -510 -141 -611 -212 -24 -17 -69 -56 -99 -87
l-55 -56 115 54 c63 30 133 59 155 65 67 18 203 32 325 32 143 0 178 9 217 58
34 42 123 171 123 178 0 6 1 6 -170 -32z"/>
<path d="M3858 1019 c-37 -5 -94 -15 -125 -22 l-58 -13 90 -8 c130 -11 206
-31 325 -84 128 -57 164 -59 268 -12 40 18 69 37 65 41 -18 18 -210 80 -290
94 -93 16 -170 17 -275 4z"/>
<path d="M4675 925 c-44 -9 -109 -25 -145 -37 -71 -23 -225 -96 -218 -104 3
-2 63 10 134 27 149 37 253 42 352 15 162 -43 181 -41 299 36 l78 51 -30 9
c-56 17 -382 19 -470 3z"/>
</g>
</svg>
